HIERARCHY
ROOT hip
{
	OFFSET 0.000000 0.000000 0.000000 
	CHANNELS 6 Xposition Yposition Zposition Xrotation Zrotation Yrotation
	JOINT abdomen
	{
		OFFSET 0.000000 3.402643 0.000000 
		CHANNELS 3 Xrotation Zrotation Yrotation
		JOINT chest
		{
			OFFSET 0.000000 8.438565 -0.680529 
			CHANNELS 3 Xrotation Zrotation Yrotation
			JOINT neck
			{
				OFFSET 0.000000 10.207942 -0.272212 
				CHANNELS 3 Xrotation Zrotation Yrotation
				JOINT head
				{
					OFFSET 0.000000 3.130431 0.000000 
					CHANNELS 3 Xrotation Zrotation Yrotation
					End Site
					{
						OFFSET 0.000000 3.130435 0.000000 
					}
				}
			}
			JOINT lCollar
			{
				OFFSET 3.470700 6.669187 -0.816635 
				CHANNELS 3 Yrotation Zrotation Xrotation
				JOINT lShldr
				{
					OFFSET 3.198488 0.000000 0.000000 
					CHANNELS 3 Zrotation Yrotation Xrotation
					JOINT lForeArm
					{
						OFFSET 10.139888 0.000000 0.000000 
						CHANNELS 3 Yrotation Zrotation Xrotation
						JOINT lHand
						{
							OFFSET 8.370511 0.000000 0.000000 
							CHANNELS 3 Zrotation Yrotation Xrotation
							End Site
							{
								OFFSET 4.083176 0.000000 0.000000 
							}
						}
					}
				}
			}
			JOINT rCollar
			{
				OFFSET -3.470700 6.669187 -0.816635 
				CHANNELS 3 Yrotation Zrotation Xrotation
				JOINT rShldr
				{
					OFFSET -3.198488 0.000000 0.000000 
					CHANNELS 3 Zrotation Yrotation Xrotation
					JOINT rForeArm
					{
						OFFSET -10.139888 0.000000 0.000000 
						CHANNELS 3 Yrotation Zrotation Xrotation
						JOINT rHand
						{
							OFFSET -8.370511 0.000000 0.000000 
							CHANNELS 3 Zrotation Yrotation Xrotation
							End Site
							{
								OFFSET -4.083176 0.000000 0.000000 
							}
						}
					}
				}
			}
		}
	}
	JOINT lThigh
	{
		OFFSET 5.308129 -1.633274 1.361059 
		CHANNELS 3 Xrotation Zrotation Yrotation
		JOINT lShin
		{
			OFFSET -2.041588 -20.007561 0.000000 
			CHANNELS 3 Xrotation Zrotation Yrotation
			JOINT lFoot
			{
				OFFSET 0.000000 -19.190928 -1.224953 
				CHANNELS 3 Xrotation Yrotation Zrotation
				End Site
				{
					OFFSET 0.000000 -2.449906 4.627600 
				}
			}
		}
	}
	JOINT rThigh
	{
		OFFSET -5.308129 -1.633274 1.361059 
		CHANNELS 3 Xrotation Zrotation Yrotation
		JOINT rShin
		{
			OFFSET 2.041588 -20.007561 0.000000 
			CHANNELS 3 Xrotation Zrotation Yrotation
			JOINT rFoot
			{
				OFFSET 0.000000 -19.190928 -1.224953 
				CHANNELS 3 Xrotation Yrotation Zrotation
				End Site
				{
					OFFSET 0.000000 -2.449906 4.627600 
				}
			}
		}
	}
}
MOTION
Frames: 18
Frame Time: 0.033333
36.851650 51.358753 14.134785 -9.990233 9.697266 -135.623352 20.373167 -6.053547 16.738373 -6.153394 -8.545302 3.151172 0.000000 0.000000 0.000000 -29.150391 -16.884766 29.538181 1.234963 1.213585 2.981620 -65.361374 34.708019 1.826697 -128.617737 0.238975 0.430920 62.825890 -31.248306 8.008500 -1.621615 -6.919846 4.410761 72.822029 -7.825105 -2.450737 95.158447 -0.300299 0.284209 -37.625446 -44.483215 29.485859 -42.091774 4.500674 -0.904356 40.034946 -4.282908 -4.230926 18.602045 7.820566 -13.291251 -29.352577 -2.538648 -6.559930 28.416739 4.804290 2.939869 -3.787784 4.310233 11.492459 
36.725689 51.813591 13.609785 -8.769531 10.595703 -128.689621 19.637665 -3.655066 12.456537 -6.211201 -6.983731 2.854919 0.000000 0.000000 0.000000 -25.781250 -16.728516 30.026485 0.527674 2.922399 3.841948 -62.728302 26.204760 5.343606 -131.063980 -0.099952 0.334853 68.400246 -30.370237 6.307371 -1.188941 -1.608859 3.965494 74.699303 -17.800497 -2.340229 94.278969 -0.277590 0.216507 -35.799789 -42.802776 26.415724 -41.629414 3.017146 -2.765616 38.464565 -4.454961 -3.923176 22.100245 8.318225 -13.420591 -27.934742 -4.637436 -11.609922 28.246378 4.984132 2.773312 -3.324197 4.791357 11.139017 
35.281876 52.566143 11.438093 -7.363281 11.503906 -121.326180 18.093325 -1.828391 6.886064 -5.923290 -4.710485 2.106794 0.000000 0.000000 0.000000 -23.671877 -16.181641 33.291016 0.267844 6.423979 4.284004 -66.764511 16.891632 3.019319 -127.548622 -0.067159 0.120235 62.492023 -23.990952 10.044745 -1.107326 2.279368 3.481469 76.321991 -26.322098 -1.819363 94.275154 -0.072548 0.206693 -34.006428 -41.296490 24.515160 -35.732044 3.211688 -1.586939 31.404995 -4.878896 -3.493694 16.291365 7.498029 -9.942515 -25.769693 -5.546021 -15.828036 27.209003 5.281887 2.255558 -2.075304 3.880585 11.852355 
33.318043 53.393116 8.900665 -5.761718 12.236328 -114.402229 16.187407 -0.297861 0.315336 -5.274951 -2.437917 1.188973 0.000000 0.000000 0.000000 -22.919920 -16.103516 38.473854 0.334111 11.166391 4.533636 -71.974655 5.517080 -1.153832 -121.208931 -0.142891 0.133870 52.368828 -13.073023 14.064349 -1.664320 3.845533 2.698821 77.495369 -33.663006 0.448153 95.156990 -0.222187 0.215838 -31.528399 -40.366184 23.783855 -28.496048 4.353500 -0.415337 22.067543 -5.572544 -2.323503 12.357639 4.984166 -6.483611 -21.574930 -5.190840 -18.811390 23.493855 5.272832 2.015399 -1.730344 2.799334 13.014993 
32.584843 53.823162 7.757848 -4.511719 12.617188 -108.367012 15.348662 0.774048 -3.895972 -4.954082 -1.218486 0.504610 0.000000 0.000000 0.000000 -22.841797 -16.933594 39.638672 0.422851 15.033762 4.843354 -75.140450 -4.907159 -3.634065 -113.823135 0.303846 0.533999 43.081306 -2.694396 16.365381 -2.354010 4.541360 1.753397 81.729118 -40.175049 -2.758880 96.387062 -0.189558 0.263315 -28.129145 -39.282295 23.497379 -24.745480 5.055698 0.895109 16.426159 -5.661851 -1.884911 13.747127 1.799567 -4.769454 -16.674290 -4.663889 -22.000126 17.674112 5.441974 1.750904 -2.226673 2.372953 14.127188 
33.835392 54.335880 8.393813 -3.427734 12.626954 -104.265442 16.130804 2.100454 -4.850284 -5.296769 -1.569050 0.281493 0.000000 0.000000 0.000000 -23.935547 -18.115234 38.251953 0.472300 16.618177 5.031991 -76.979919 -9.936701 -5.371235 -107.835091 0.243530 0.452022 36.750645 3.423529 17.208666 -3.084113 4.725471 0.989506 88.238739 -43.303600 -10.018702 98.320313 -0.153700 0.348093 -25.279514 -38.586643 23.490738 -27.445429 4.227343 -0.382159 18.017776 -5.603314 -2.027801 24.548943 0.667197 -0.672188 -14.691956 -4.760752 -23.447647 14.845340 5.514443 1.475406 -1.222645 1.067206 15.448022 
36.705887 54.236652 10.041124 -2.880859 12.285156 -102.558594 17.917267 3.251590 -4.380871 -5.970056 -2.796992 0.108181 0.000000 0.000000 0.000000 -25.917969 -18.818359 38.408203 0.427953 14.681256 4.849140 -79.463493 -5.629052 -7.333778 -103.613762 0.134416 0.352929 35.215797 3.700232 18.112247 -3.681979 4.915854 0.439023 91.405609 -43.197571 -13.748910 100.956741 -0.114776 0.312587 -24.570656 -37.172867 23.113535 -33.216644 2.470118 -1.554846 22.428057 -5.361251 -2.638723 38.952274 1.368639 0.776818 -17.292288 -6.120579 -22.858372 18.021013 5.476445 1.805793 0.019446 -0.410501 17.522339 
38.295097 53.351780 11.688605 -2.871094 11.582032 -105.156250 19.974100 4.125917 -2.808383 -6.464526 -4.205774 0.108506 0.000000 0.000000 0.000000 -28.349609 -18.759766 41.992188 0.162889 10.800265 4.611300 -83.253578 4.008480 -10.115486 -99.399208 0.397457 0.492293 34.830643 0.704407 19.244902 -3.646897 5.452694 0.297736 84.808533 -40.587673 -6.722281 105.884682 0.131531 0.216910 -26.782955 -34.412285 21.023224 -37.490555 1.445047 -3.610575 27.733974 -5.289330 -3.215787 41.223705 2.135378 -2.078518 -20.034185 -6.412095 -20.416430 22.070351 5.087694 2.161454 -3.399554 -1.309668 17.975710 
36.841084 52.169182 12.577034 -3.574219 10.175781 -111.894539 21.731411 4.050106 -0.403224 -6.792307 -5.258720 0.518871 0.000000 0.000000 0.000000 -30.849607 -18.017578 47.692295 -0.042986 6.043965 4.557750 -87.550507 16.411119 -14.551269 -95.867943 0.111297 0.498264 35.663532 -3.905966 20.477699 -3.510461 5.614356 0.535387 73.141357 -34.548641 6.050339 112.215408 0.039289 0.290601 -31.442499 -31.309099 18.989166 -36.829388 1.269598 -4.436691 33.174183 -4.862340 -3.690746 21.887360 5.334510 -5.688705 -24.285778 -6.679224 -16.515867 29.478605 4.823441 2.888590 -8.725403 0.063395 17.012224 
38.190880 50.812946 13.894515 -4.443359 8.408203 -121.053261 23.020658 2.307403 3.580614 -6.422888 -5.943561 1.266914 0.000000 0.000000 0.000000 -32.451172 -17.578125 51.608383 -0.291706 1.983682 4.246035 -90.151733 27.542955 -16.932760 -93.221916 0.160523 0.714942 36.831947 -8.950161 21.162361 -3.083345 4.549943 0.980104 68.349113 -25.398689 11.255507 115.929565 -0.121101 0.001443 -35.226513 -29.777685 18.469753 -41.280361 2.382780 -3.568721 42.153305 -4.133124 -4.220025 22.609156 6.774031 -8.545684 -29.215467 -5.780494 -10.789832 36.704483 4.497468 3.361146 -11.169938 1.780146 17.299675 
40.256615 49.894993 15.110080 -5.136719 6.650391 -130.673828 24.284235 -0.695091 8.869899 -5.870785 -6.448009 2.365969 0.000000 0.000000 0.000000 -33.593750 -17.666018 51.637661 -0.457902 -0.138698 4.285676 -87.982170 35.271221 -13.637461 -92.531952 0.349180 0.509995 37.648182 -12.483467 21.464460 -2.762465 0.821459 1.905276 70.121193 -13.152193 9.022795 115.054520 -0.350964 0.212962 -38.618694 -31.035471 22.724968 -44.479836 5.585289 -1.895025 47.245258 -3.811571 -4.781032 31.271540 4.468464 -10.681802 -31.676685 -3.300445 -4.118594 38.644150 4.520615 3.427344 -10.576605 2.604722 18.102907 
40.781132 50.316757 15.471823 -5.654297 5.068359 -139.023849 24.746523 -3.652950 13.971943 -5.155672 -6.772236 3.278173 0.000000 0.000000 0.000000 -33.964844 -18.505859 48.785961 -0.455848 0.037298 4.281723 -82.870827 38.723278 -6.755718 -94.113525 0.309971 0.411868 38.190205 -15.022007 21.161623 -2.152596 -4.289654 3.279966 71.062691 0.034344 5.217187 111.888405 -0.249692 0.116935 -42.532497 -33.168041 30.289604 -43.015938 8.310229 -1.325541 46.765999 -4.270439 -4.067631 38.098270 1.368505 -11.095959 -30.860523 -1.259377 0.162293 35.648293 4.671326 3.702661 -8.765280 4.315207 18.928106 
39.553177 51.482800 14.429962 -5.996094 4.189453 -144.227798 24.065170 -5.648542 16.735506 -4.983509 -6.592063 4.167163 0.000000 0.000000 0.000000 -33.691406 -19.785156 45.722656 -0.466318 1.614419 4.284161 -80.114456 41.009079 -2.012291 -97.625267 0.068906 0.398135 38.771599 -16.904461 20.196020 -1.629740 -7.449183 4.424510 70.214081 7.870262 3.192648 107.676819 -0.676129 0.267471 -44.790653 -35.781075 35.516747 -36.411007 9.784006 1.001760 40.589268 -4.637350 -4.216905 29.694248 4.380272 -13.389591 -27.445528 -1.113072 2.416050 29.129366 4.955636 3.249778 -4.360570 5.688388 15.897856 
36.861004 53.045795 11.492015 -7.060547 4.882813 -145.273438 22.143291 -6.247058 16.858858 -5.364050 -5.908028 4.669663 0.000000 0.000000 0.000000 -32.304688 -20.390625 44.707031 -0.414750 4.080722 4.507905 -81.056511 43.026802 -0.532443 -102.019211 -0.002430 0.436409 39.341949 -18.862751 18.692543 -1.283639 -7.078984 4.650800 68.405304 8.137122 4.591733 101.690567 -0.716617 0.476706 -44.266376 -38.538315 37.207478 -26.949768 9.559265 4.508254 28.969604 -5.161798 -2.945653 18.545763 7.143764 -10.421625 -22.440897 -1.728192 3.294943 19.606533 5.513251 2.348603 -0.174391 5.468484 15.327301 
35.431770 53.889317 9.173502 -8.857422 6.767579 -143.260574 18.992086 -6.189698 15.154583 -6.099576 -4.714758 4.929991 0.000000 0.000000 0.000000 -30.000000 -20.371094 44.716797 -0.380656 6.709516 4.671429 -83.116493 45.614716 0.008178 -106.953003 0.073817 0.358590 40.996578 -20.443153 16.870161 -1.254591 -4.781711 4.410017 67.322975 3.558664 8.021631 95.172028 -0.505160 0.313517 -41.867626 -41.856224 36.277309 -22.183846 9.558434 6.408908 19.415489 -5.428556 -2.338907 16.411642 6.309769 -6.880984 -17.175171 -1.806721 4.405648 8.307262 5.993884 1.168295 4.001167 2.266725 15.539092 
34.922321 54.865154 7.786624 -10.146484 8.994141 -139.402771 16.151928 -5.460778 12.368447 -6.843217 -3.511382 4.799990 0.000000 0.000000 0.000000 -27.880859 -20.273438 45.849613 -0.492494 8.974422 5.051158 -85.066643 47.044956 -0.550943 -111.350029 0.181020 0.647531 42.649017 -21.399736 14.802659 -1.354842 -1.967001 3.886507 67.368385 -3.494298 12.186834 90.937157 -0.203058 0.285043 -39.956852 -43.609741 34.820484 -20.763477 9.438664 6.337595 12.731606 -5.744256 -1.458544 24.177748 3.841439 -6.102291 -17.491838 -1.211475 5.684453 7.413937 5.853184 0.876879 11.568884 2.717210 15.871377 
34.521343 55.204212 7.047969 -10.380859 10.546875 -134.814453 14.677151 -4.431614 9.171329 -7.209680 -2.474681 4.431948 0.000000 0.000000 0.000000 -27.080080 -20.087893 47.392578 -1.144227 10.494336 5.529882 -81.974251 42.515770 2.345922 -116.983559 0.073881 0.364515 47.720688 -22.410881 10.622392 -1.875408 1.369754 2.835241 68.029327 -13.438489 14.253736 92.342621 -0.147592 0.324453 -38.126820 -43.250710 33.018661 -19.809855 9.069716 5.593477 7.953953 -5.780401 -1.125623 27.845615 2.489068 -5.603638 -18.334280 -0.049644 6.211612 9.181418 5.796044 1.255106 13.290627 2.681694 15.457780 
34.249489 54.840343 6.841504 -9.140626 10.927734 -128.457031 15.033555 -2.316441 4.591257 -7.058083 -1.425976 3.689491 0.000000 0.000000 0.000000 -27.480471 -20.185547 48.291019 -2.116174 11.779517 6.331729 -77.248169 31.621260 4.325468 -122.984383 0.336273 0.527687 53.397869 -22.076294 5.501535 -2.492107 5.249085 1.545033 66.438606 -24.553991 15.517809 96.384521 -0.052863 0.302343 -35.763424 -41.474743 29.967930 -20.395876 8.279160 3.768595 8.481515 -5.829414 -1.184792 23.348682 1.407380 -4.589067 -18.607616 0.291888 6.155216 12.896248 5.759607 1.474742 12.095371 2.398802 16.922443 
